<mxfile host="app.diagrams.net" modified="2023-11-01T15:25:06.337Z" agent="Mozilla/5.0 (Windows NT 10.0; Win64; x64) AppleWebKit/537.36 (KHTML, like Gecko) Chrome/119.0.0.0 Safari/537.36" etag="wRGfNk-Uf11ubb83sQzu" version="22.0.8" type="github" pages="3">
  <diagram name="Halaman-1" id="zn1uzXPEvTLkMiAX7A1P">
    <mxGraphModel dx="1500" dy="819" grid="1" gridSize="10" guides="1" tooltips="1" connect="1" arrows="1" fold="1" page="1" pageScale="1" pageWidth="827" pageHeight="1169" math="0" shadow="0">
      <root>
        <mxCell id="0" />
        <mxCell id="1" parent="0" />
        <mxCell id="Fph7Ib0F5lfORnJ69MP0-1" value="" style="edgeStyle=orthogonalEdgeStyle;rounded=0;orthogonalLoop=1;jettySize=auto;html=1;" edge="1" parent="1">
          <mxGeometry relative="1" as="geometry">
            <mxPoint x="210" y="64" as="sourcePoint" />
            <mxPoint x="210" y="154" as="targetPoint" />
          </mxGeometry>
        </mxCell>
        <mxCell id="Fph7Ib0F5lfORnJ69MP0-2" value="Setar" style="ellipse;whiteSpace=wrap;html=1;" vertex="1" parent="1">
          <mxGeometry x="150" y="19" width="120" height="80" as="geometry" />
        </mxCell>
        <mxCell id="Fph7Ib0F5lfORnJ69MP0-3" value="" style="edgeStyle=orthogonalEdgeStyle;rounded=0;orthogonalLoop=1;jettySize=auto;html=1;" edge="1" parent="1">
          <mxGeometry relative="1" as="geometry">
            <mxPoint x="211" y="201" as="sourcePoint" />
            <mxPoint x="211" y="281" as="targetPoint" />
          </mxGeometry>
        </mxCell>
        <mxCell id="Fph7Ib0F5lfORnJ69MP0-4" value="Memasukan bilangan" style="shape=parallelogram;perimeter=parallelogramPerimeter;whiteSpace=wrap;html=1;fixedSize=1;" vertex="1" parent="1">
          <mxGeometry x="160" y="158" width="111" height="60" as="geometry" />
        </mxCell>
        <mxCell id="Fph7Ib0F5lfORnJ69MP0-5" value="" style="edgeStyle=orthogonalEdgeStyle;rounded=0;orthogonalLoop=1;jettySize=auto;html=1;" edge="1" parent="1">
          <mxGeometry relative="1" as="geometry">
            <mxPoint x="210" y="339" as="sourcePoint" />
            <mxPoint x="210" y="419" as="targetPoint" />
          </mxGeometry>
        </mxCell>
        <mxCell id="Fph7Ib0F5lfORnJ69MP0-6" value="Bilangan dibagi menjadi 2" style="rounded=0;whiteSpace=wrap;html=1;" vertex="1" parent="1">
          <mxGeometry x="150" y="288" width="120" height="60" as="geometry" />
        </mxCell>
        <mxCell id="Fph7Ib0F5lfORnJ69MP0-7" value="" style="edgeStyle=orthogonalEdgeStyle;rounded=0;orthogonalLoop=1;jettySize=auto;html=1;" edge="1" parent="1" target="Fph7Ib0F5lfORnJ69MP0-11">
          <mxGeometry relative="1" as="geometry">
            <mxPoint x="210" y="502" as="sourcePoint" />
            <mxPoint x="210" y="607" as="targetPoint" />
          </mxGeometry>
        </mxCell>
        <mxCell id="Fph7Ib0F5lfORnJ69MP0-8" value="" style="edgeStyle=orthogonalEdgeStyle;rounded=0;orthogonalLoop=1;jettySize=auto;html=1;" edge="1" parent="1" source="Fph7Ib0F5lfORnJ69MP0-9">
          <mxGeometry relative="1" as="geometry">
            <mxPoint x="330" y="478" as="targetPoint" />
          </mxGeometry>
        </mxCell>
        <mxCell id="Fph7Ib0F5lfORnJ69MP0-9" value="Sisa&lt;br&gt;=2" style="rhombus;whiteSpace=wrap;html=1;" vertex="1" parent="1">
          <mxGeometry x="170" y="423" width="80" height="110" as="geometry" />
        </mxCell>
        <mxCell id="Fph7Ib0F5lfORnJ69MP0-10" value="" style="edgeStyle=orthogonalEdgeStyle;rounded=0;orthogonalLoop=1;jettySize=auto;html=1;" edge="1" parent="1" source="Fph7Ib0F5lfORnJ69MP0-11">
          <mxGeometry relative="1" as="geometry">
            <mxPoint x="210" y="683" as="targetPoint" />
          </mxGeometry>
        </mxCell>
        <mxCell id="Fph7Ib0F5lfORnJ69MP0-11" value="Ganjil" style="shape=parallelogram;perimeter=parallelogramPerimeter;whiteSpace=wrap;html=1;fixedSize=1;" vertex="1" parent="1">
          <mxGeometry x="150" y="588" width="120" height="30" as="geometry" />
        </mxCell>
        <mxCell id="Fph7Ib0F5lfORnJ69MP0-12" value="Selesai" style="ellipse;whiteSpace=wrap;html=1;" vertex="1" parent="1">
          <mxGeometry x="160.5" y="688" width="99" height="50" as="geometry" />
        </mxCell>
        <mxCell id="Fph7Ib0F5lfORnJ69MP0-13" value="" style="edgeStyle=orthogonalEdgeStyle;rounded=0;orthogonalLoop=1;jettySize=auto;html=1;" edge="1" parent="1" source="Fph7Ib0F5lfORnJ69MP0-14">
          <mxGeometry relative="1" as="geometry">
            <mxPoint x="270" y="720" as="targetPoint" />
            <Array as="points">
              <mxPoint x="390" y="580" />
              <mxPoint x="390" y="580" />
            </Array>
          </mxGeometry>
        </mxCell>
        <mxCell id="Fph7Ib0F5lfORnJ69MP0-14" value="Genap" style="shape=parallelogram;perimeter=parallelogramPerimeter;whiteSpace=wrap;html=1;fixedSize=1;" vertex="1" parent="1">
          <mxGeometry x="330" y="463" width="120" height="30" as="geometry" />
        </mxCell>
        <mxCell id="Fph7Ib0F5lfORnJ69MP0-15" value="YA" style="text;html=1;align=center;verticalAlign=middle;resizable=0;points=[];autosize=1;strokeColor=none;fillColor=none;" vertex="1" parent="1">
          <mxGeometry x="250" y="446" width="40" height="30" as="geometry" />
        </mxCell>
        <mxCell id="Fph7Ib0F5lfORnJ69MP0-16" value="Tidak" style="text;html=1;align=center;verticalAlign=middle;resizable=0;points=[];autosize=1;strokeColor=none;fillColor=none;" vertex="1" parent="1">
          <mxGeometry x="205" y="536" width="50" height="30" as="geometry" />
        </mxCell>
        <mxCell id="Fph7Ib0F5lfORnJ69MP0-17" value="no 1" style="text;html=1;align=center;verticalAlign=middle;resizable=0;points=[];autosize=1;strokeColor=none;fillColor=none;" vertex="1" parent="1">
          <mxGeometry x="35" y="16" width="50" height="30" as="geometry" />
        </mxCell>
      </root>
    </mxGraphModel>
  </diagram>
  <diagram id="FNopgPVSr094211WVB2H" name="Halaman-2">
    <mxGraphModel dx="1909" dy="1042" grid="1" gridSize="10" guides="1" tooltips="1" connect="1" arrows="1" fold="1" page="1" pageScale="1" pageWidth="827" pageHeight="1169" math="0" shadow="0">
      <root>
        <mxCell id="0" />
        <mxCell id="1" parent="0" />
        <mxCell id="iybKUtkyTIaatTcix7nV-7" value="" style="edgeStyle=orthogonalEdgeStyle;rounded=0;orthogonalLoop=1;jettySize=auto;html=1;" edge="1" parent="1" source="iybKUtkyTIaatTcix7nV-4">
          <mxGeometry relative="1" as="geometry">
            <mxPoint x="358.75" y="240" as="targetPoint" />
          </mxGeometry>
        </mxCell>
        <mxCell id="iybKUtkyTIaatTcix7nV-4" value="MULAI" style="strokeWidth=2;html=1;shape=mxgraph.flowchart.terminator;whiteSpace=wrap;" vertex="1" parent="1">
          <mxGeometry x="268.75" y="100" width="180" height="60" as="geometry" />
        </mxCell>
        <mxCell id="iybKUtkyTIaatTcix7nV-10" value="" style="edgeStyle=orthogonalEdgeStyle;rounded=0;orthogonalLoop=1;jettySize=auto;html=1;" edge="1" parent="1" source="iybKUtkyTIaatTcix7nV-8">
          <mxGeometry relative="1" as="geometry">
            <mxPoint x="358.75" y="390" as="targetPoint" />
          </mxGeometry>
        </mxCell>
        <mxCell id="iybKUtkyTIaatTcix7nV-8" value="Input jari-Jari(r)" style="shape=parallelogram;perimeter=parallelogramPerimeter;whiteSpace=wrap;html=1;fixedSize=1;" vertex="1" parent="1">
          <mxGeometry x="276.25" y="240" width="165" height="60" as="geometry" />
        </mxCell>
        <mxCell id="iybKUtkyTIaatTcix7nV-13" value="" style="edgeStyle=orthogonalEdgeStyle;rounded=0;orthogonalLoop=1;jettySize=auto;html=1;" edge="1" parent="1" source="iybKUtkyTIaatTcix7nV-11">
          <mxGeometry relative="1" as="geometry">
            <mxPoint x="580" y="490" as="targetPoint" />
          </mxGeometry>
        </mxCell>
        <mxCell id="iybKUtkyTIaatTcix7nV-15" value="" style="edgeStyle=orthogonalEdgeStyle;rounded=0;orthogonalLoop=1;jettySize=auto;html=1;" edge="1" parent="1" source="iybKUtkyTIaatTcix7nV-11">
          <mxGeometry relative="1" as="geometry">
            <mxPoint x="120" y="490" as="targetPoint" />
          </mxGeometry>
        </mxCell>
        <mxCell id="iybKUtkyTIaatTcix7nV-11" value="jari-jari = kelipatan 7 ?" style="rhombus;whiteSpace=wrap;html=1;" vertex="1" parent="1">
          <mxGeometry x="260" y="390" width="197.5" height="80" as="geometry" />
        </mxCell>
        <mxCell id="iybKUtkyTIaatTcix7nV-22" value="" style="edgeStyle=orthogonalEdgeStyle;rounded=0;orthogonalLoop=1;jettySize=auto;html=1;" edge="1" parent="1" source="iybKUtkyTIaatTcix7nV-16" target="iybKUtkyTIaatTcix7nV-18">
          <mxGeometry relative="1" as="geometry">
            <mxPoint x="120" y="640" as="targetPoint" />
            <Array as="points">
              <mxPoint x="120" y="660" />
            </Array>
          </mxGeometry>
        </mxCell>
        <mxCell id="iybKUtkyTIaatTcix7nV-16" value="Phi = 22/7" style="rounded=0;whiteSpace=wrap;html=1;" vertex="1" parent="1">
          <mxGeometry x="60" y="500" width="120" height="60" as="geometry" />
        </mxCell>
        <mxCell id="iybKUtkyTIaatTcix7nV-24" value="" style="edgeStyle=orthogonalEdgeStyle;rounded=0;orthogonalLoop=1;jettySize=auto;html=1;entryX=1;entryY=0.5;entryDx=0;entryDy=0;" edge="1" parent="1" source="iybKUtkyTIaatTcix7nV-17" target="iybKUtkyTIaatTcix7nV-18">
          <mxGeometry relative="1" as="geometry">
            <mxPoint x="580" y="639.9999999999998" as="targetPoint" />
            <Array as="points">
              <mxPoint x="580" y="660" />
            </Array>
          </mxGeometry>
        </mxCell>
        <mxCell id="iybKUtkyTIaatTcix7nV-17" value="Phi = 3.14" style="rounded=0;whiteSpace=wrap;html=1;" vertex="1" parent="1">
          <mxGeometry x="520" y="500" width="120" height="60" as="geometry" />
        </mxCell>
        <mxCell id="iybKUtkyTIaatTcix7nV-26" value="" style="edgeStyle=orthogonalEdgeStyle;rounded=0;orthogonalLoop=1;jettySize=auto;html=1;" edge="1" parent="1" source="iybKUtkyTIaatTcix7nV-18">
          <mxGeometry relative="1" as="geometry">
            <mxPoint x="354" y="770" as="targetPoint" />
          </mxGeometry>
        </mxCell>
        <mxCell id="iybKUtkyTIaatTcix7nV-18" value="Hitung Luas&amp;nbsp;&amp;nbsp;&lt;br&gt;L=Phi xrxr" style="rounded=0;whiteSpace=wrap;html=1;" vertex="1" parent="1">
          <mxGeometry x="294" y="630" width="120" height="60" as="geometry" />
        </mxCell>
        <mxCell id="iybKUtkyTIaatTcix7nV-29" value="" style="edgeStyle=orthogonalEdgeStyle;rounded=0;orthogonalLoop=1;jettySize=auto;html=1;" edge="1" parent="1" source="iybKUtkyTIaatTcix7nV-27">
          <mxGeometry relative="1" as="geometry">
            <mxPoint x="354" y="898" as="targetPoint" />
          </mxGeometry>
        </mxCell>
        <mxCell id="iybKUtkyTIaatTcix7nV-27" value="tampilkan Lua" style="shape=display;whiteSpace=wrap;html=1;" vertex="1" parent="1">
          <mxGeometry x="289" y="773" width="130" height="50" as="geometry" />
        </mxCell>
        <mxCell id="iybKUtkyTIaatTcix7nV-30" value="SELESAI" style="strokeWidth=2;html=1;shape=mxgraph.flowchart.terminator;whiteSpace=wrap;" vertex="1" parent="1">
          <mxGeometry x="279" y="910" width="150" height="50" as="geometry" />
        </mxCell>
      </root>
    </mxGraphModel>
  </diagram>
  <diagram id="ISzXAqTUZsI78TT_8_mR" name="Halaman-3">
    <mxGraphModel dx="1500" dy="819" grid="1" gridSize="10" guides="1" tooltips="1" connect="1" arrows="1" fold="1" page="1" pageScale="1" pageWidth="827" pageHeight="1169" math="0" shadow="0">
      <root>
        <mxCell id="0" />
        <mxCell id="1" parent="0" />
        <mxCell id="Rul1e2mcHB6WIoOy7lWs-1" value="" style="edgeStyle=orthogonalEdgeStyle;rounded=0;orthogonalLoop=1;jettySize=auto;html=1;" edge="1" parent="1" source="Rul1e2mcHB6WIoOy7lWs-2">
          <mxGeometry relative="1" as="geometry">
            <mxPoint x="315" y="245" as="targetPoint" />
          </mxGeometry>
        </mxCell>
        <mxCell id="Rul1e2mcHB6WIoOy7lWs-2" value="Mulai" style="strokeWidth=2;html=1;shape=mxgraph.flowchart.terminator;whiteSpace=wrap;" vertex="1" parent="1">
          <mxGeometry x="240" y="110" width="150" height="70" as="geometry" />
        </mxCell>
        <mxCell id="Rul1e2mcHB6WIoOy7lWs-3" value="" style="edgeStyle=orthogonalEdgeStyle;rounded=0;orthogonalLoop=1;jettySize=auto;html=1;" edge="1" parent="1" source="Rul1e2mcHB6WIoOy7lWs-4" target="Rul1e2mcHB6WIoOy7lWs-6">
          <mxGeometry relative="1" as="geometry" />
        </mxCell>
        <mxCell id="Rul1e2mcHB6WIoOy7lWs-4" value="Input Alas" style="shape=parallelogram;perimeter=parallelogramPerimeter;whiteSpace=wrap;html=1;fixedSize=1;" vertex="1" parent="1">
          <mxGeometry x="247.5" y="250" width="135" height="60" as="geometry" />
        </mxCell>
        <mxCell id="Rul1e2mcHB6WIoOy7lWs-5" value="" style="edgeStyle=orthogonalEdgeStyle;rounded=0;orthogonalLoop=1;jettySize=auto;html=1;" edge="1" parent="1" source="Rul1e2mcHB6WIoOy7lWs-6">
          <mxGeometry relative="1" as="geometry">
            <mxPoint x="315" y="539.9999999999998" as="targetPoint" />
          </mxGeometry>
        </mxCell>
        <mxCell id="Rul1e2mcHB6WIoOy7lWs-6" value="input tinggi" style="shape=parallelogram;perimeter=parallelogramPerimeter;whiteSpace=wrap;html=1;fixedSize=1;" vertex="1" parent="1">
          <mxGeometry x="247.5" y="400" width="135" height="60" as="geometry" />
        </mxCell>
        <mxCell id="Rul1e2mcHB6WIoOy7lWs-7" value="" style="edgeStyle=orthogonalEdgeStyle;rounded=0;orthogonalLoop=1;jettySize=auto;html=1;" edge="1" parent="1" source="Rul1e2mcHB6WIoOy7lWs-8">
          <mxGeometry relative="1" as="geometry">
            <mxPoint x="315" y="679.9999999999998" as="targetPoint" />
          </mxGeometry>
        </mxCell>
        <mxCell id="Rul1e2mcHB6WIoOy7lWs-8" value="Luas &amp;lt;-(Alas*tinggi) /2" style="rounded=0;whiteSpace=wrap;html=1;" vertex="1" parent="1">
          <mxGeometry x="222.5" y="540" width="185" height="60" as="geometry" />
        </mxCell>
        <mxCell id="Rul1e2mcHB6WIoOy7lWs-9" value="" style="edgeStyle=orthogonalEdgeStyle;rounded=0;orthogonalLoop=1;jettySize=auto;html=1;" edge="1" parent="1" source="Rul1e2mcHB6WIoOy7lWs-10" target="Rul1e2mcHB6WIoOy7lWs-11">
          <mxGeometry relative="1" as="geometry" />
        </mxCell>
        <mxCell id="Rul1e2mcHB6WIoOy7lWs-10" value="Tampilan Luas" style="shape=parallelogram;perimeter=parallelogramPerimeter;whiteSpace=wrap;html=1;fixedSize=1;" vertex="1" parent="1">
          <mxGeometry x="247.5" y="680" width="135" height="60" as="geometry" />
        </mxCell>
        <mxCell id="Rul1e2mcHB6WIoOy7lWs-11" value="Selesai" style="strokeWidth=2;html=1;shape=mxgraph.flowchart.terminator;whiteSpace=wrap;" vertex="1" parent="1">
          <mxGeometry x="240" y="810" width="150" height="50" as="geometry" />
        </mxCell>
      </root>
    </mxGraphModel>
  </diagram>
</mxfile>
